<svg width="20" height="20" viewBox="0 0 20 20" fill="none" xmlns="http://www.w3.org/2000/svg">
<g id="tabler:currency-taka">
<g id="Group">
<path id="Vector" d="M12.918 12.9271C12.918 13.1481 13.0058 13.3601 13.162 13.5163C13.3183 13.6726 13.5303 13.7604 13.7513 13.7604C13.9723 13.7604 14.1843 13.6726 14.3406 13.5163C14.4968 13.3601 14.5846 13.1481 14.5846 12.9271C14.5846 12.7061 14.4968 12.4941 14.3406 12.3378C14.1843 12.1815 13.9723 12.0938 13.7513 12.0938C13.5303 12.0938 13.3183 12.1815 13.162 12.3378C13.0058 12.4941 12.918 12.7061 12.918 12.9271Z" stroke="black" stroke-width="2" stroke-linecap="round" stroke-linejoin="round"/>
<path id="Vector_2" d="M5.83398 5.83854C5.83398 5.39651 6.00958 4.97259 6.32214 4.66003C6.6347 4.34747 7.05862 4.17188 7.50065 4.17188C7.94268 4.17188 8.3666 4.34747 8.67916 4.66003C8.99172 4.97259 9.16732 5.39651 9.16732 5.83854V13.3385C9.16732 14.0016 9.43071 14.6375 9.89955 15.1063C10.3684 15.5752 11.0043 15.8385 11.6673 15.8385C12.3304 15.8385 12.9662 15.5752 13.4351 15.1063C13.9039 14.6375 14.1673 14.0016 14.1673 13.3385V12.9219M6.66732 9.17188H11.6673" stroke="black" stroke-width="2" stroke-linecap="round" stroke-linejoin="round"/>
</g>
</g>
</svg>
