<svg width="30" height="30" viewBox="0 0 30 30" fill="none" xmlns="http://www.w3.org/2000/svg">
<g id="Group 35">
<rect id="Rectangle 11" width="30" height="30" rx="15" fill="#FFF1F4"/>
<path id="Vector" d="M20.7566 18.4375C20.1579 18.4375 19.7303 17.9688 19.7303 17.5C19.7303 16.9531 20.2434 16.5625 20.7566 16.5625C21.2697 16.5625 21.7829 17.0313 21.7829 17.5C21.8684 17.9688 21.3553 18.4375 20.7566 18.4375ZM20.7566 14.6875C19.1316 14.6875 17.7632 15.9375 17.7632 17.4219C17.7632 19.4531 20.7566 22.5 20.7566 22.5C20.7566 22.5 23.75 19.4531 23.75 17.4219C23.75 15.9375 22.3816 14.6875 20.7566 14.6875ZM17.6776 14.1406C17.4211 13.125 16.3947 12.3438 15.1974 12.3438C13.7434 12.3438 12.6316 13.3594 12.6316 14.6875C12.6316 16.0156 13.7434 17.0312 15.1974 17.0312C15.5395 17.0312 15.7961 16.9531 16.0526 16.875C16.2237 15.7812 16.8224 14.8438 17.6776 14.1406ZM16.0526 17.8125H10.9211C10.9211 17.3981 10.7408 17.0007 10.4201 16.7076C10.0993 16.4146 9.66419 16.25 9.21053 16.25V13.125C9.66419 13.125 10.0993 12.9604 10.4201 12.6674C10.7408 12.3743 10.9211 11.9769 10.9211 11.5625H19.4737C19.4737 11.9769 19.6539 12.3743 19.9747 12.6674C20.2955 12.9604 20.7306 13.125 21.1842 13.125C21.1842 13.125 22.0395 13.125 22.8947 13.5938V10H7.5V19.375H16.4803C16.3092 18.8281 16.1382 18.3594 16.0526 17.8125Z" fill="#F40F6F"/>
</g>
</svg>
