<svg width="30" height="30" viewBox="0 0 30 30" fill="none" xmlns="http://www.w3.org/2000/svg">
<g id="Group 35">
<rect id="Rectangle 11" width="29.7099" height="30" rx="14.855" fill="#FFF1F4"/>
<path id="Vector" d="M14.1105 18.75H15.596V14.25H14.1105V18.75ZM14.8533 12.75C15.0637 12.75 15.2402 12.678 15.3828 12.534C15.5254 12.39 15.5965 12.212 15.596 12C15.596 11.7875 15.5247 11.6092 15.3821 11.4652C15.2395 11.3212 15.0632 11.2495 14.8533 11.25C14.6428 11.25 14.4663 11.322 14.3237 11.466C14.1811 11.61 14.11 11.788 14.1105 12C14.1105 12.2125 14.1818 12.3907 14.3244 12.5347C14.467 12.6788 14.6433 12.7505 14.8533 12.75ZM14.8533 22.5C13.8258 22.5 12.8602 22.303 11.9565 21.909C11.0529 21.515 10.2668 20.9807 9.59832 20.3062C8.92985 19.6312 8.40076 18.8375 8.01107 17.925C7.62137 17.0125 7.42628 16.0375 7.42578 15C7.42578 13.9625 7.62088 12.9875 8.01107 12.075C8.40126 11.1625 8.93034 10.3687 9.59832 9.69375C10.2668 9.01875 11.0529 8.4845 11.9565 8.091C12.8602 7.6975 13.8258 7.5005 14.8533 7.5C15.8807 7.5 16.8463 7.697 17.75 8.091C18.6537 8.485 19.4397 9.01925 20.1082 9.69375C20.7767 10.3687 21.306 11.1625 21.6962 12.075C22.0864 12.9875 22.2812 13.9625 22.2807 15C22.2807 16.0375 22.0856 17.0125 21.6955 17.925C21.3053 18.8375 20.7762 19.6312 20.1082 20.3062C19.4397 20.9812 18.6537 21.5157 17.75 21.9097C16.8463 22.3037 15.8807 22.5005 14.8533 22.5ZM14.8533 21C16.5121 21 17.9171 20.4187 19.0684 19.2562C20.2196 18.0937 20.7952 16.675 20.7952 15C20.7952 13.325 20.2196 11.9062 19.0684 10.7437C17.9171 9.58125 16.5121 9 14.8533 9C13.1945 9 11.7894 9.58125 10.6382 10.7437C9.48691 11.9062 8.91128 13.325 8.91128 15C8.91128 16.675 9.48691 18.0937 10.6382 19.2562C11.7894 20.4187 13.1945 21 14.8533 21Z" fill="#F40F6F"/>
</g>
</svg>
