<svg width="20" height="20" viewBox="0 0 20 20" fill="none" xmlns="http://www.w3.org/2000/svg">
<path d="M14.1667 7.63166L14.1035 6.7798C14.0456 5.99943 13.3712 5.39482 12.5587 5.39482H10.9033M5 15.8334H4.04878C3.15 15.8334 2.43998 15.0992 2.50402 14.2359L3.05712 6.7798C3.11501 5.99943 3.78938 5.39482 4.60188 5.39482H6.25725M6.25725 5.39482V3.90359C6.25725 2.66822 7.29732 1.66675 8.5803 1.66675C9.86328 1.66675 10.9033 2.66822 10.9033 3.90359V5.39482M6.25725 5.39482H10.9033M14.1667 12.5001C14.1667 13.4206 13.4205 14.1667 12.5 14.1667C11.5795 14.1667 10.8333 13.4206 10.8333 12.5001M9.16667 17.5001H15.8333C16.7538 17.5001 17.5 16.7539 17.5 15.8334V11.6667C17.5 10.7463 16.7538 10.0001 15.8333 10.0001H9.16667C8.24619 10.0001 7.5 10.7463 7.5 11.6667V15.8334C7.5 16.7539 8.24619 17.5001 9.16667 17.5001Z" stroke="black" stroke-opacity="0.6" stroke-width="1.5" stroke-linecap="round"/>
</svg>
